<svg width="32" height="26" viewBox="0 0 32 26" fill="none" xmlns="http://www.w3.org/2000/svg">
<path d="M18.6958 0.989931C16.8363 0.989931 11.2841 2.2706 11.2841 8.48439C11.2841 11.5439 12.8189 13.7563 15.2713 14.9119C16.4854 15.4847 17.8387 15.7711 19.3271 15.7711H22.8545C24.0464 15.7711 24.6757 16.6101 24.6757 17.5237C24.6757 18.7177 23.276 19.242 22.8545 19.242H9.11398C8.01078 19.242 7.49851 18.2558 7.49851 17.5923V5.17279C7.49851 2.86153 5.6249 0.987915 3.31364 0.987915H1.69818C0.800699 0.987915 0.0726318 1.71598 0.0726318 2.61346V17.5237C0.0726318 24.0925 6.40944 25.0525 8.15196 25.0525H23.9536C30.353 25.0525 31.791 19.6877 31.791 17.1123C31.791 10.6847 25.7022 9.85783 23.6088 9.85783H19.9805C18.9822 9.85783 18.3994 9.13581 18.3994 8.31094C18.3994 7.06657 19.4541 6.79833 19.9805 6.79833H26.3294C28.6407 6.79833 30.5143 4.92472 30.5143 2.61346C30.5143 2.61346 30.5002 0.987915 28.8888 0.987915H18.6958V0.989931Z" fill="black"/>
<path d="M18.6958 0.989931C16.8363 0.989931 11.2841 2.2706 11.2841 8.48439C11.2841 11.5439 12.8189 13.7563 15.2713 14.9119C16.4854 15.4847 17.8387 15.7711 19.3271 15.7711H22.8545C24.0464 15.7711 24.6757 16.6101 24.6757 17.5237C24.6757 18.7177 23.276 19.242 22.8545 19.242H9.11398C8.01078 19.242 7.49851 18.2558 7.49851 17.5923V5.17279C7.49851 2.86153 5.6249 0.987915 3.31364 0.987915H1.69818C0.800699 0.987915 0.0726318 1.71598 0.0726318 2.61346V17.5237C0.0726318 24.0925 6.40944 25.0525 8.15196 25.0525H23.9536C30.353 25.0525 31.791 19.6877 31.791 17.1123C31.791 10.6847 25.7022 9.85783 23.6088 9.85783H19.9805C18.9822 9.85783 18.3994 9.13581 18.3994 8.31094C18.3994 7.06657 19.4541 6.79833 19.9805 6.79833H26.3294C28.6407 6.79833 30.5143 4.92472 30.5143 2.61346C30.5143 2.61346 30.5002 0.987915 28.8888 0.987915H18.6958V0.989931Z" fill="url(#paint0_linear_3220_20)"/>
<defs>
<linearGradient id="paint0_linear_3220_20" x1="-1.81659" y1="14.4546" x2="30.1048" y2="14.4546" gradientUnits="userSpaceOnUse">
<stop stop-color="#008392"/>
<stop offset="1" stop-color="#00BC86"/>
</linearGradient>
</defs>
</svg>
